# xmcd
#
# Track frame offsets: 
#        150
#        29736
#        51480
#        82348
#        108578
#        129446
#        160065
#        178086
#        204440
#        239500
#        271363
#
# Disc length: 3956 seconds
#
# Revision: 0
# Processed by: cddbd v1.5.2PL0 Copyright (c) Steve Scherf et al.
# Submitted via: ExactAudioCopy v1.3
#
DISCID=a40f720b
DTITLE=Dana Gillespie - In The Garden Of Heavenly Peac
DYEAR=2001
DGENRE=Spiritual, Bhajans
TTITLE0=Through Love
TTITLE1=Under The Sun
TTITLE2=Stealer Of Hearts
TTITLE3=Strange Are The Ways Of Love
TTITLE4=Move Your Body Close To Me
TTITLE5=Three Words
TTITLE6=Watch Over Me
TTITLE7=In The Garden Of Heavenly Peace
TTITLE8=Silently Sighing
TTITLE9=Prema Ishwara Hai
TTITLE10=Shower The Rose Petals
EXTD=
EXTT0=
EXTT1=
EXTT2=
EXTT3=
EXTT4=
EXTT5=
EXTT6=
EXTT7=
EXTT8=
EXTT9=
EXTT10=
PLAYORDER=
